<svg width="24" height="24" viewBox="0 0 24 24" fill="none" xmlns="http://www.w3.org/2000/svg">
<path d="M5.80005 0.600027C7.00005 0.300027 8.00005 0.500076 8.70005 0.900076L7.90005 0.400076C7.10005 7.60853e-05 6.10005 -0.0999361 5.00005 0.200064C2.60005 0.800064 1.00005 2.30005 0.300049 4.50005L1.00005 5.00005C1.80005 2.80005 3.40005 1.20003 5.80005 0.600027Z" fill="#FEFEFE"/>
<path d="M6.50005 1.10005C4.10005 1.70005 2.60005 3.2001 1.80005 5.4001L2.50005 5.9001C3.30005 3.7001 4.90005 2.10008 7.30005 1.50008C8.70005 1.20008 9.50005 1.40006 10.2001 1.80006L9.40005 1.30006C8.60005 0.833398 7.63338 0.766719 6.50005 1.10005Z" fill="#FEFEFE"/>
<path fill-rule="evenodd" clip-rule="evenodd" d="M24 16.0001L21.5 16.6001V24.0001L20.7 23.5001V16.8001L20 17.0001V23.1001L19.3 22.6001V17.2001L18.4 17.4001V22.2001L17.7 21.7001V17.6001L3.9 21.0001L3 20.6001C3.3 18.1001 4.8 15.4001 8.3 12.6001C11.3 10.3001 12.5 8.00014 12.5 5.90014C12.5 5.30014 12.5 4.8001 12.4 4.3001C12.2 3.5001 11.8 2.90011 11.3 2.50011C11.1667 2.43345 11.0333 2.40014 10.9 2.40014C11.2333 2.80014 11.4667 3.30014 11.6 3.90014C11.7 4.30014 11.8 4.90011 11.8 5.50011C11.8 7.70011 10.5 9.90012 7.6 12.2001C4 15.0001 2.6 17.7001 2.3 20.1001L1.5 19.7001C1.9 17.2001 3.3 14.5001 6.8 11.7001C9.8 9.40012 11 7.20011 11 5.00011C11 4.40011 10.9667 3.8668 10.9 3.40014C10.7667 3.00014 10.6 2.63343 10.4 2.3001C10.2 2.3001 10.0333 2.3001 9.9 2.3001C9.96667 2.5001 10.0333 2.70014 10.1 2.90014C10.2333 3.43347 10.3 4.00009 10.3 4.60009C10.3 6.60009 9.2 8.9001 6.1 11.3001C2.5 14.1001 1.1 16.8001 0.700001 19.2001L0 18.8001C0.3 16.3001 1.7 13.6001 5.3 10.8001C8.4 8.4001 9.5 6.10009 9.5 4.10009C9.5 3.50009 9.43333 2.96678 9.3 2.50011V2.3001C9.1 2.3001 9 2.40014 8.8 2.40014C6.4 3.00014 4.8 4.6001 4 6.8001L3.3 6.3001C4.1 4.2001 5.7 2.60011 8.1 2.00011C9.2 1.70011 10.2 1.80012 10.9 2.20012L11.7 2.70012C12.4 3.10012 12.9 3.8001 13.1 4.8001C13.2333 5.26677 13.3 5.80014 13.3 6.40014C13.3 8.60014 12.1 10.8001 9.1 13.1001C7.2 14.6001 5.9 16.1001 5 17.5001L9.7 16.4001L17.6 2.10009L18.3 2.60009L10.4 16.8001L4.7 18.2001C4.5 18.5001 4.4 18.7001 4.3 19.0001L11.2 17.3001L19.1 3.10009L19.8 3.50011L11.9 17.7001L4.1 19.7001C4.03333 19.9001 3.96667 20.1001 3.9 20.3001L12.7 18.2001L20.7 4.00011L21.5 4.40014V14.7001L21.7 14.6001L22.5 15.1001L21.5 15.3001V16.0001L23.3 15.5001L24 16.0001ZM20.7 5.70012L20 7.00011V15.8001L14.3 17.1001L13.9 17.9001L20.7 16.2001V5.70012ZM14.8 16.4001L19.3 15.3001V8.3001L18.4 9.90014V14.9001L15.2 15.7001L14.8 16.4001ZM15.6 14.9001L17.7 14.3001V11.1001L15.6 14.9001Z" fill="#FEFEFE"/>
</svg>
