<svg width="56" height="55" viewBox="0 0 56 55" fill="none" xmlns="http://www.w3.org/2000/svg">
<path d="M13.2 1.40003C16 0.700033 18.4 1.20003 19.8 2.00003L18.1 1.00003C16.3 -0.0999684 14 -0.299967 11.5 0.400033C5.9 1.70003 2.39998 5.40003 0.599976 10.3L2.40002 11.4C4.10002 6.40003 7.70001 2.80003 13.2 1.40003Z" fill="#231F20"/>
<path d="M15 2.4C9.4 3.8 5.9 7.4 4 12.4L5.79999 13.4C7.59999 8.5 11.2 4.9 16.7 3.5C19.9 2.7 21.7 3.1 23.3 4.1L21.5 3C19.8 2 17.5 1.8 15 2.4Z" fill="#231F20"/>
<path fill-rule="evenodd" clip-rule="evenodd" d="M55.1 36.6L49.1 38.2V55L47.5 53.9V38.6L45.8 39V52.9L44.2 51.9V39.4L42.2 39.9V50.8L40.5 49.8V40.3L8.79999 48.2L6.79999 47.1C7.59999 41.6 10.9 35.4 19.1 29C26 23.6 28.7 18.4 28.7 13.6C28.7 12.2 28.6 10.9 28.3 9.90005C27.9 8.10005 27 6.70004 25.9 5.80004C25.6 5.60004 25.2 5.50005 24.9 5.40005C25.6 6.30005 26.2 7.50005 26.5 8.90005C26.8 9.90005 26.9 11.1 26.9 12.5C27 17.6 24 22.8 17.3 28C9.19999 34.3 6.00001 40.6 5.20001 46.1L3.40002 45.1C4.30002 39.5 7.49998 33.2 15.6 26.9C22.5 21.5 25.2 16.6 25.3 11.5C25.3 10.1 25.1 9.00005 24.8 7.90005C24.6 6.83338 24.2667 5.96671 23.8 5.30004C23.4 5.20004 22.9 5.20005 22.5 5.20005C22.7 5.70005 22.9 6.20005 23.1 6.70005C23.3 7.80005 23.5 9.10005 23.5 10.4C23.5 15.2 20.9 20.3 13.9 25.9C5.70002 32.2 2.39998 38.4 1.59998 44L0 43C0.7 37.4 3.89998 31.3 12.1 24.9C19.3 19.3 21.7 14 21.7 9.40005C21.7 8.00005 21.6 6.80005 21.4 5.70005L21.3 5.30004C20.9 5.40004 20.6 5.50004 20.2 5.60004C14.7 6.90004 11 10.6 9.20001 15.5L7.59998 14.5C9.29998 9.60005 12.9 5.90004 18.4 4.60004C21 3.90004 23.3 4.10005 25 5.20005L26.8 6.20005C28.3 7.10005 29.5 8.70004 30.1 11.1C30.3 12.1 30.5 13.3 30.5 14.6C30.5 19.7 27.6 24.7 20.8 30.1C16.4 33.5 13.4 36.9 11.5 40.1L22.1 37.5L40.2 4.90005L42 6.00005L23.8 38.5L10.6 41.8C10.3 42.3 10.1 42.9 9.90002 43.5L25.6 39.5L43.8 7.00005L45.4 8.00005L27.3 40.6L9.29999 45.1C9.09999 45.6334 8.96669 46.1334 8.90002 46.6L29.1 41.6L47.3 9.10004L49.1 10.2V33.6L49.8 33.4L51.6 34.5L49.1 35.2V36.6L53.4 35.6L55.1 36.6ZM47.5 12.9L45.9 15.9V36L32.9 39.1L31.9 40.9L47.5 37V12.9ZM33.9 37.5L44.2 35V18.9L42.2 22.5V33.9L34.8 35.7L33.9 37.5ZM35.8 34.1L40.6 32.9V25.5L35.8 34.1Z" fill="#231F20"/>
</svg>
